<svg width="1200" height="630" viewBox="0 0 1200 630" xmlns="http://www.w3.org/2000/svg">
  <rect width="1200" height="630" fill="#FF6B35"/>
  <rect x="0" y="0" width="1200" height="630" fill="#D85A30" opacity="0.3"/>
  <rect x="60" y="60" width="1080" height="510" rx="24" fill="#ffffff" opacity="0.06"/>
  <circle cx="980" cy="120" r="220" fill="#ffffff" opacity="0.05"/>
  <circle cx="1080" cy="500" r="160" fill="#ffffff" opacity="0.04"/>
  <circle cx="100" cy="500" r="120" fill="#ffffff" opacity="0.04"/>
  <rect x="80" y="80" width="56" height="56" rx="14" fill="#ffffff" opacity="0.15"/>
  <rect x="80" y="80" width="56" height="56" rx="14" fill="none" stroke="#ffffff" stroke-width="1" opacity="0.3"/>
  <rect x="92" y="102" width="14" height="14" rx="3" fill="#ffffff" opacity="0.9"/>
  <rect x="110" y="102" width="14" height="14" rx="3" fill="#ffffff" opacity="0.6"/>
  <rect x="92" y="120" width="14" height="14" rx="3" fill="#ffffff" opacity="0.6"/>
  <rect x="110" y="120" width="14" height="14" rx="3" fill="#ffffff" opacity="0.4"/>
  <rect x="122" y="107" width="2" height="20" rx="1" fill="#ffffff" opacity="0.9"/>
  <rect x="110" y="119" width="14" height="2" rx="1" fill="#ffffff" opacity="0.9"/>
  <text x="152" y="108" font-family="Georgia, serif" font-size="22" font-weight="700" fill="#ffffff" opacity="0.95">AutoBridge</text>
  <text x="152" y="130" font-family="Arial, sans-serif" font-size="13" font-weight="400" fill="#ffffff" opacity="0.6" letter-spacing="2">NG LIMITED</text>
  <text x="80" y="290" font-family="Georgia, serif" font-size="72" font-weight="700" fill="#ffffff" opacity="0.97" letter-spacing="-1">Africa's Global</text>
  <text x="80" y="375" font-family="Georgia, serif" font-size="72" font-weight="700" fill="#ffffff" opacity="0.97" letter-spacing="-1">Trade Marketplace</text>
  <text x="80" y="430" font-family="Arial, sans-serif" font-size="24" font-weight="400" fill="#ffffff" opacity="0.75">Buy, sell, export &amp; ship African products globally — AI-powered &amp; DHL-integrated.</text>
  <rect x="80" y="468" width="140" height="38" rx="19" fill="#ffffff" opacity="0.15"/>
  <rect x="80" y="468" width="140" height="38" rx="19" fill="none" stroke="#ffffff" stroke-width="1" opacity="0.4"/>
  <text x="150" y="492" font-family="Arial, sans-serif" font-size="14" font-weight="600" fill="#ffffff" text-anchor="middle" opacity="0.95">Agro Exports</text>
  <rect x="234" y="468" width="160" height="38" rx="19" fill="#ffffff" opacity="0.15"/>
  <rect x="234" y="468" width="160" height="38" rx="19" fill="none" stroke="#ffffff" stroke-width="1" opacity="0.4"/>
  <text x="314" y="492" font-family="Arial, sans-serif" font-size="14" font-weight="600" fill="#ffffff" text-anchor="middle" opacity="0.95">Packaged Foods</text>
  <rect x="408" y="468" width="156" height="38" rx="19" fill="#ffffff" opacity="0.15"/>
  <rect x="408" y="468" width="156" height="38" rx="19" fill="none" stroke="#ffffff" stroke-width="1" opacity="0.4"/>
  <text x="486" y="492" font-family="Arial, sans-serif" font-size="14" font-weight="600" fill="#ffffff" text-anchor="middle" opacity="0.95">Fashion Prints</text>
  <rect x="578" y="468" width="130" height="38" rx="19" fill="#ffffff" opacity="0.15"/>
  <rect x="578" y="468" width="130" height="38" rx="19" fill="none" stroke="#ffffff" stroke-width="1" opacity="0.4"/>
  <text x="643" y="492" font-family="Arial, sans-serif" font-size="14" font-weight="600" fill="#ffffff" text-anchor="middle" opacity="0.95">Auto Parts</text>
  <rect x="722" y="468" width="160" height="38" rx="19" fill="#ffffff" opacity="0.15"/>
  <rect x="722" y="468" width="160" height="38" rx="19" fill="none" stroke="#ffffff" stroke-width="1" opacity="0.4"/>
  <text x="802" y="492" font-family="Arial, sans-serif" font-size="14" font-weight="600" fill="#ffffff" text-anchor="middle" opacity="0.95">DHL Fulfillment</text>
  <text x="1120" y="492" font-family="Arial, sans-serif" font-size="13" font-weight="400" fill="#ffffff" opacity="0.5" text-anchor="end">autobridge.com.ng</text>
</svg>